<?xml version="1.0" encoding="utf-8" standalone="yes"?>
<!DOCTYPE svg PUBLIC "-//W3C//DTD SVG 1.1//EN" "http://www.w3.org/Graphics/SVG/1.1/DTD/svg11.dtd">
<svg width="900" height="708" viewBox="0 0 900 708" style="fill:none;stroke:none;fill-rule:evenodd;clip-rule:evenodd;stroke-linecap:round;stroke-linejoin:round;stroke-miterlimit:1.5;" version="1.1" xmlns="http://www.w3.org/2000/svg" xmlns:xlink="http://www.w3.org/1999/xlink"><style class="text-font-style fontImports" data-font-family="Roboto">@import url('https://fonts.googleapis.com/css2?family=Roboto:wght@400;700&amp;display=block');</style><g id="items" style="isolation: isolate"><g id="blend" style="mix-blend-mode: normal"><g id="g-root-cp_6_g-6_8wj0a35voav9-fill" data-item-order="999400826" transform="translate(247.01199340820312, 122)"></g><g id="g-root-cp_5_g-5_w0175vobnz-fill" data-item-order="999400830" transform="translate(212, 236.804931640625)"></g><g id="g-root-cp_4_g-4_4gpi5n5vobnl-fill" data-item-order="999400834" transform="translate(229.15399169921875, 422.804931640625)"></g><g id="g-root-cp_3_g-3_1um6jvv5voc97-fill" data-item-order="999400838" transform="translate(422, 441.3380126953125)"></g><g id="g-root-cp_2_g-2_1um6jvv5voc99-fill" data-item-order="999400842" transform="translate(551.3150024414062, 255.5889892578125)"></g><g id="g-root-cp_1_g-1_1um6jvv5voc9b-fill" data-item-order="999400846" transform="translate(448.6099853515625, 134.1629638671875)"></g><g id="g-root-tx_thefront_1uuaq0b5vsk5k-fill" data-item-order="1000000000" transform="translate(578, 122)"><g id="tx_thefront_1uuaq0b5vsk5k-fill" stroke="none" fill="#f4f4f4"><g><text style="font: 15px Roboto, sans-serif; white-space: pre;" font-size="15px" font-family="Roboto, sans-serif"><tspan x="12" y="27.5" dominant-baseline="ideographic">The frontend initiates a </tspan><tspan x="12" y="45.5" dominant-baseline="ideographic">request to the backend.</tspan></text></g></g></g><g id="g-root-ic_view_1cvj0h75vobgq-fill" data-item-order="1000000000" transform="translate(314, 182)"></g><g id="g-root-ic_next_8xrygb5vskcr-fill" data-item-order="1000000000" transform="translate(518, 182)"></g><g id="g-root-tx_thefront_1hjgoq35vsikq-fill" data-item-order="1000000000" transform="translate(146, 122)"><g id="tx_thefront_1hjgoq35vsikq-fill" stroke="none" fill="#f4f4f4"><g><text style="font: 15px Roboto, sans-serif; white-space: pre;" font-size="15px" font-family="Roboto, sans-serif"><tspan x="15.02" y="27.5" dominant-baseline="ideographic">The frontend monitors </tspan><tspan x="39.9" y="45.5" dominant-baseline="ideographic">the write progress.</tspan></text></g></g></g><g id="g-root-tx_checkpro_1qeh7vv5vskxt-fill" data-item-order="1000000000" transform="translate(146, 86)"><g id="tx_checkpro_1qeh7vv5vskxt-fill" stroke="none" fill="#fb6762"><g><text style="font: bold 20px Roboto, sans-serif; white-space: pre;" font-weight="bold" font-size="20px" font-family="Roboto, sans-serif"><tspan x="21.7" y="33.5" dominant-baseline="ideographic">Check Progress</tspan></text></g></g></g><g id="g-root-tx_writetod_14806cr5vsk5p-fill" data-item-order="1000000000" transform="translate(14, 326)"><g id="tx_writetod_14806cr5vsk5p-fill" stroke="none" fill="#f79438"><g><text style="font: bold 20px Roboto, sans-serif; white-space: pre;" font-weight="bold" font-size="20px" font-family="Roboto, sans-serif"><tspan x="16.55" y="33.5" dominant-baseline="ideographic">Write to Database</tspan></text></g></g></g><g id="g-root-ic_edit_mg3orv5vobgo-fill" data-item-order="1000000000" transform="translate(230, 338)"></g><g id="g-root-ic_2_1luae5n5vr4zp-fill" data-item-order="1000000000" transform="translate(602, 338)"></g><g id="g-root-tx_processm_1hjgoq35vsikr-fill" data-item-order="1000000000" transform="translate(698, 326)"><g id="tx_processm_1hjgoq35vsikr-fill" stroke="none" fill="#43dd93"><g><text style="font: bold 20px Roboto, sans-serif; white-space: pre;" font-weight="bold" font-size="20px" font-family="Roboto, sans-serif"><tspan x="12" y="33.5" dominant-baseline="ideographic">Process Message</tspan></text></g></g></g><g id="g-root-tx_themessa_14806cr5vsk5q-fill" data-item-order="1000000000" transform="translate(14, 362)"><g id="tx_themessa_14806cr5vsk5q-fill" stroke="none" fill="#f4f4f4"><g><text style="font: 15px Roboto, sans-serif; white-space: pre;" font-size="15px" font-family="Roboto, sans-serif"><tspan x="21.09" y="27.5" dominant-baseline="ideographic">The message is written </tspan><tspan x="68.2" y="45.5" dominant-baseline="ideographic">to the database.</tspan></text></g></g></g><g id="g-root-tx_thebacke_1d3n6ln5vsjd0-fill" data-item-order="1000000000" transform="translate(698, 362)"><g id="tx_thebacke_1d3n6ln5vsjd0-fill" stroke="none" fill="#f4f4f4"><g><text style="font: 15px Roboto, sans-serif; white-space: pre;" font-size="15px" font-family="Roboto, sans-serif"><tspan x="12" y="27.5" dominant-baseline="ideographic">The backend processes </tspan><tspan x="12" y="45.5" dominant-baseline="ideographic">the incoming message.</tspan></text></g></g></g><g id="g-root-tx_sendrequ_1uuaq0b5vsk5j-fill" data-item-order="1000000000" transform="translate(578, 62)"><g id="tx_sendrequ_1uuaq0b5vsk5j-fill" stroke="none" fill="#1ac3fb"><g><text style="font: bold 20px Roboto, sans-serif; white-space: pre;" font-weight="bold" font-size="20px" font-family="Roboto, sans-serif"><tspan x="12" y="33.5" dominant-baseline="ideographic">Send Request to </tspan><tspan x="12" y="57.5" dominant-baseline="ideographic">Backend</tspan></text></g></g></g><g id="g-root-tx_reactfro_1lqjjmz5vodtt-fill" data-item-order="1000000000" transform="translate(248, 2)"><g id="tx_reactfro_1lqjjmz5vodtt-fill" stroke="none" fill="#f4f4f4"><g><text style="font: bold 25px Roboto, sans-serif; white-space: pre;" font-weight="bold" font-size="25px" font-family="Roboto, sans-serif"><tspan x="15.64" y="42.5" dominant-baseline="ideographic">React Frontend Application Cycle</tspan></text></g></g></g><g id="g-root-ic_2_1uux73f5vob9l-fill" data-item-order="1000000000" transform="translate(314, 494)"></g><g id="g-root-ic_conv_1430dnv5vpsem-fill" data-item-order="1000000000" transform="translate(518, 494)"></g><g id="g-root-tx_readfrom_zs6o8b5vskxz-fill" data-item-order="1000000000" transform="translate(182, 566)"><g id="tx_readfrom_zs6o8b5vskxz-fill" stroke="none" fill="#ffe711"><g><text style="font: bold 20px Roboto, sans-serif; white-space: pre;" font-weight="bold" font-size="20px" font-family="Roboto, sans-serif"><tspan x="22.64" y="33.5" dominant-baseline="ideographic">Read from </tspan><tspan x="26.62" y="57.5" dominant-baseline="ideographic">RabbitMQ</tspan></text></g></g></g><g id="g-root-tx_sendtora_dju7fv5vsl59-fill" data-item-order="1000000000" transform="translate(578, 566)"><g id="tx_sendtora_dju7fv5vsl59-fill" stroke="none" fill="#a6da37"><g><text style="font: bold 20px Roboto, sans-serif; white-space: pre;" font-weight="bold" font-size="20px" font-family="Roboto, sans-serif"><tspan x="12" y="33.5" dominant-baseline="ideographic">Send to RabbitMQ</tspan></text></g></g></g><g id="g-root-tx_theproce_9065n5vsjke-fill" data-item-order="1000000000" transform="translate(578, 602)"><g id="tx_theproce_9065n5vsjke-fill" stroke="none" fill="#f4f4f4"><g><text style="font: 15px Roboto, sans-serif; white-space: pre;" font-size="15px" font-family="Roboto, sans-serif"><tspan x="12" y="27.5" dominant-baseline="ideographic">The processed message </tspan><tspan x="12" y="45.5" dominant-baseline="ideographic">is sent to RabbitMQ.</tspan></text></g></g></g><g id="g-root-tx_anotherb_v301t75vtx4w-fill" data-item-order="1000000000" transform="translate(158, 626)"><g id="tx_anotherb_v301t75vtx4w-fill" stroke="none" fill="#f4f4f4"><g><text style="font: 15px Roboto, sans-serif; white-space: pre;" font-size="15px" font-family="Roboto, sans-serif"><tspan x="26.86" y="30.5" dominant-baseline="ideographic">Another backend </tspan><tspan x="17.34" y="48.5" dominant-baseline="ideographic">instance reads the </tspan><tspan x="74.91" y="66.5" dominant-baseline="ideographic">message.</tspan></text></g></g></g><g id="g-root-cp_6_g-6_8wj0a35voav9-stroke" data-item-order="999400826" transform="translate(247.01199340820312, 122)"><g id="cp_6_g-6_8wj0a35voav9-stroke" fill="none" stroke-linecap="round" stroke-linejoin="round" stroke-miterlimit="4" stroke="#fb6762" stroke-width="2"><g><path d="M 208.9876 118L 220.9876 64L 208.9876 10L 184.9876 10.000001L 187.7654 22.5001L 196.9876 64L 187.4707 106.8263L 184.9876 118L 208.9876 118ZM 187.4707 106.8263L 196.9876 64L 187.7654 22.5001C 112.8569 27.4379 47.8322 68.553 10 128.5367L 50.9068 141.412L 82.7957 170.6623C 105.876 135.7674 143.7454 111.511 187.4707 106.8263Z"></path></g></g></g><g id="g-root-cp_5_g-5_w0175vobnz-stroke" data-item-order="999400830" transform="translate(212, 236.804931640625)"><g id="cp_5_g-5_w0175vobnz-stroke" fill="none" stroke-linecap="round" stroke-linejoin="round" stroke-miterlimit="4" stroke="#f79438" stroke-width="2"><g><path d="M 126.6845 64L 85.9192 26.6077L 33.1538 10L 21.1538 30.7846L 33.327 34.6161L 73.9192 47.3923L 106.2306 77.0302L 114.6845 84.7846L 126.6845 64ZM 109.1805 199.6209C 99.4669 180.2361 94 158.3544 94 135.1957C 94 114.4968 98.3673 94.8179 106.2306 77.0302L 73.9192 47.3923L 33.327 34.6161C 18.3902 64.9539 10 99.095 10 135.1957C 10 173.6289 19.5094 209.841 36.3036 241.6075L 67.9194 212.6077L 109.1805 199.6209Z"></path></g></g></g><g id="g-root-cp_4_g-4_4gpi5n5vobnl-stroke" data-item-order="999400834" transform="translate(229.15399169921875, 422.804931640625)"><g id="cp_4_g-4_4gpi5n5vobnl-stroke" fill="none" stroke-linecap="round" stroke-linejoin="round" stroke-miterlimit="4" stroke="#ffe711" stroke-width="2"><g><path d="M 103.5307 10L 50.7654 26.6077L 10 64L 22 84.7846L 31.4254 76.1391L 62.7654 47.3923L 104.615 34.2203L 115.5307 30.7846L 103.5307 10ZM 212.1431 177.0327L 202.8459 135.1957L 212.2355 92.9426C 168.054 90.337 129.2292 67.8117 104.615 34.2203L 62.7654 47.3923L 31.4254 76.1391C 70.8406 134.837 136.8174 174.2058 212.1431 177.0327Z"></path></g></g></g><g id="g-root-cp_3_g-3_1um6jvv5voc97-stroke" data-item-order="999400838" transform="translate(422, 441.3380126953125)"><g id="cp_3_g-3_1um6jvv5voc97-stroke" fill="none" stroke-linecap="round" stroke-linejoin="round" stroke-miterlimit="4" stroke="#a6da37" stroke-width="2"><g><path d="M 22 170.6617L 10 116.6617L 22 62.6617L 46 62.6617L 43.517 73.8354L 34 116.6617L 43.2222 158.1616L 46 170.6617L 22 170.6617ZM 180.0806 39.2505L 148.1915 10C 125.1112 44.8945 87.242 69.1507 43.517 73.8354L 34 116.6617L 43.2222 158.1616C 118.1304 153.2238 183.1549 112.109 220.9872 52.1257L 180.0806 39.2505Z"></path></g></g></g><g id="g-root-cp_2_g-2_1um6jvv5voc99-stroke" data-item-order="999400842" transform="translate(551.3150024414062, 255.5889892578125)"><g id="cp_2_g-2_1um6jvv5voc99-stroke" fill="none" stroke-linecap="round" stroke-linejoin="round" stroke-miterlimit="4" stroke="#43dd93" stroke-width="2"><g><path d="M 103.5307 241.6076L 50.7654 224.9999L 10 187.6076L 22 166.823L 30.4538 174.5773L 62.7654 204.2153L 103.3573 216.9914L 115.5307 220.823L 103.5307 241.6076ZM 27.5047 51.9866C 37.218 71.3712 42.6848 93.2527 42.6848 116.411C 42.6848 137.1102 38.3174 156.7894 30.4538 174.5773L 62.7654 204.2153L 103.3573 216.9914C 118.2944 186.6534 126.6848 152.512 126.6848 116.411C 126.6848 77.9782 117.1755 41.7664 100.3815 10L 68.7656 38.9999L 27.5047 51.9866Z"></path></g></g></g><g id="g-root-cp_1_g-1_1um6jvv5voc9b-stroke" data-item-order="999400846" transform="translate(448.6099853515625, 134.1629638671875)"><g id="cp_1_g-1_1um6jvv5voc9b-stroke" fill="none" stroke-linecap="round" stroke-linejoin="round" stroke-miterlimit="4" stroke="#1ac3fb" stroke-width="2"><g><path d="M 212.2358 123.0335L 171.4705 160.4258L 118.7051 177.0335L 106.7051 156.2489L 117.6211 152.8131L 159.4705 139.6412L 190.8106 110.8943L 200.2358 102.2489L 212.2358 123.0335ZM 19.3896 51.837L 10 94.0901C 54.1818 96.6957 93.0069 119.2213 117.6211 152.8131L 159.4705 139.6412L 190.8106 110.8943C 151.3955 52.196 85.4184 12.8269 10.0925 10L 19.3896 51.837Z"></path></g></g></g><g id="g-root-tx_thefront_1uuaq0b5vsk5k-stroke" data-item-order="1000000000" transform="translate(578, 122)"></g><g id="g-root-ic_view_1cvj0h75vobgq-stroke" data-item-order="1000000000" transform="translate(314, 182)"><g id="ic_view_1cvj0h75vobgq-stroke" fill="none" stroke-linecap="round" stroke-linejoin="round" stroke-miterlimit="4" stroke="#fb6762" stroke-width="2"><g><path d="M 28.52 45.063999L 16 45.063999C 13.790861 45.063999 12 43.27314 12 41.063999L 12 16.048C 12 13.838861 13.790861 12.048 16 12.048L 46.018002 12.048C 48.227139 12.048 50.018002 13.838861 50.018002 16.048L 50.018002 29.666M 12 19.860001L 50.02 19.860001M 12 36.468002L 28.736 36.468002M 12 28.177999L 34.021999 28.177999M 27.530001 19.860001L 27.530001 45.063999M 38.662003 19.860001L 38.662003 28.177999M 42.155998 51.632C 47.618256 51.518284 51.955372 47.000343 51.846001 41.538002C 51.955372 36.075653 47.618256 31.557716 42.155998 31.444C 36.693745 31.557716 32.356628 36.075653 32.466 41.538002C 32.356628 47.000343 36.693745 51.518284 42.155998 51.632ZM 56 55.953999L 49 48.672001"></path></g></g></g><g id="g-root-ic_next_8xrygb5vskcr-stroke" data-item-order="1000000000" transform="translate(518, 182)"><g id="ic_next_8xrygb5vskcr-stroke" fill="none" stroke-linecap="round" stroke-linejoin="round" stroke-miterlimit="4" stroke="#1ac3fb" stroke-width="2"><g><path d="M 48.060001 34.007999L 57.060001 41.007999L 48.060001 48.007999M 57.060001 41L 50.060001 41C 43.432583 41 38.060001 46.372585 38.060001 53L 38.059998 57M 12.059999 19.007999L 52.060001 19.007999M 18.060001 14.507999L 18.060001 14.507999M 18.060001 14.507999C 17.783857 14.507999 17.559999 14.731857 17.559999 15.007999C 17.559999 15.284142 17.783857 15.507999 18.060001 15.507999C 18.336143 15.507999 18.560001 15.284142 18.560001 15.007999C 18.560001 14.731857 18.336143 14.507999 18.060001 14.507999M 22.060001 14.507999L 22.060001 14.507999M 22.060001 14.507999C 21.783857 14.507999 21.560001 14.731857 21.560001 15.007999C 21.560001 15.284142 21.783857 15.507999 22.060001 15.507999C 22.336143 15.507999 22.560001 15.284142 22.560001 15.007999C 22.560001 14.731857 22.336143 14.507999 22.060001 14.507999M 26.059999 14.507999L 26.059999 14.507999M 26.059999 14.507999C 25.783857 14.507999 25.560001 14.731857 25.560001 15.007999C 25.560001 15.284142 25.783857 15.507999 26.059999 15.507999C 26.336142 15.507999 26.559999 15.284142 26.559999 15.007999C 26.559999 14.731857 26.336142 14.507999 26.059999 14.507999M 34.059998 43L 16.059999 43C 13.850861 43 12.059999 41.209137 12.059999 39L 12.059999 15C 12.059999 12.790861 13.850861 11 16.059999 11L 48.060001 11C 50.269138 11 52.060001 12.790861 52.060001 15L 52.060001 31"></path></g></g></g><g id="g-root-tx_thefront_1hjgoq35vsikq-stroke" data-item-order="1000000000" transform="translate(146, 122)"></g><g id="g-root-tx_checkpro_1qeh7vv5vskxt-stroke" data-item-order="1000000000" transform="translate(146, 86)"></g><g id="g-root-tx_writetod_14806cr5vsk5p-stroke" data-item-order="1000000000" transform="translate(14, 326)"></g><g id="g-root-ic_edit_mg3orv5vobgo-stroke" data-item-order="1000000000" transform="translate(230, 338)"><g id="ic_edit_mg3orv5vobgo-stroke" fill="none" stroke-linecap="round" stroke-linejoin="round" stroke-miterlimit="4" stroke="#f79438" stroke-width="2"><g><path d="M 11.044 19.001999C 11.044001 23.420277 19.550591 27.002001 30.044001 27.002001C 40.537411 27.002001 49.043999 23.420277 49.043999 19.001999C 49.043999 14.583722 40.537411 11.002 30.044001 11.002C 19.550591 11.002 11.044001 14.583722 11.044001 19.001999ZM 30.044001 35C 19.552 35 11.044 31.42 11.044 27M 27.044001 43.900002C 17.978001 43.299999 11.044 39.989998 11.044 36.001999M 28.044001 52.958C 18.492001 52.537998 11.044 49.136002 11.044 45.001999L 11.044 19M 49.043999 19.001999L 49.043999 28.002001M 41.440002 54.599998L 33.040001 57L 35.440002 48.599998L 49.799999 34.243999C 51.456852 32.587143 54.143143 32.587143 55.799999 34.243999C 57.456852 35.900856 57.456852 38.587143 55.799999 40.243999ZM 47.998001 36.043999L 53.998001 42.043999M 35.440002 48.602001L 41.440002 54.602001"></path></g></g></g><g id="g-root-ic_2_1luae5n5vr4zp-stroke" data-item-order="1000000000" transform="translate(602, 338)"><g id="ic_2_1luae5n5vr4zp-stroke" fill="none" stroke-linecap="round" stroke-linejoin="round" stroke-miterlimit="4" stroke="#43dd93" stroke-width="2"><g><path d="M 20.5 38.5L 20.5 47.5L 11.5 47.5M 47.5 29.5L 47.5 20.5L 56.5 20.5M 48.099998 20.5C 51.5 24.1 53.5 28.700001 53.5 34.099998C 53.5 44.900002 44.700001 53.700001 33.900002 53.700001C 31.299999 53.700001 28.700041 53.099998 26.300039 52.299999M 19.9 47.5C 16.5 43.900002 14.5 39.299999 14.5 33.900002C 14.5 23.10004 23.299999 14.300039 34.099998 14.300039C 36.700001 14.300039 39.299999 14.90004 41.700001 15.70004M 33.900002 35.099998C 33.347801 35.099998 32.900002 34.652397 32.900002 34.099998C 32.900002 33.547798 33.347801 33.099998 33.900002 33.099998M 33.899799 35.099998C 34.452 35.099998 34.899799 34.652397 34.899799 34.099998C 34.899799 33.547798 34.452 33.099998 33.899799 33.099998M 10 10M 35.700001 25.7001L 36.299999 27.7001C 36.5 28.500099 37.299999 28.900101 37.900002 28.7001L 39.900002 28.3001C 41.700001 27.900101 42.900002 30.1 41.700001 31.5L 40.299999 33.099998C 39.700001 33.700001 39.700001 34.5 40.299999 35.099998L 41.700001 36.700001C 42.900002 38.099998 41.700001 40.299999 39.900002 39.900002L 37.900002 39.5C 37.099998 39.299999 36.5 39.700001 36.299999 40.5L 35.700001 42.5C 35.099998 44.299999 32.700001 44.299999 32.099998 42.5L 31.5 40.5C 31.299999 39.700001 30.5 39.299999 29.899981 39.5L 27.899981 39.900002C 26.099979 40.299999 24.899979 38.099998 26.099979 36.700001L 27.499981 35.099998C 28.099979 34.5 28.099979 33.700001 27.499981 33.099998L 26.099979 31.5C 24.899979 30.1 26.099979 27.900101 27.899981 28.3001L 29.899981 28.7001C 30.700001 28.900101 31.299999 28.500099 31.5 27.7001L 32.099998 25.7001C 32.700001 23.900101 35.299999 23.900101 35.700001 25.7001Z"></path></g></g></g><g id="g-root-tx_processm_1hjgoq35vsikr-stroke" data-item-order="1000000000" transform="translate(698, 326)"></g><g id="g-root-tx_themessa_14806cr5vsk5q-stroke" data-item-order="1000000000" transform="translate(14, 362)"></g><g id="g-root-tx_thebacke_1d3n6ln5vsjd0-stroke" data-item-order="1000000000" transform="translate(698, 362)"></g><g id="g-root-tx_sendrequ_1uuaq0b5vsk5j-stroke" data-item-order="1000000000" transform="translate(578, 62)"></g><g id="g-root-tx_reactfro_1lqjjmz5vodtt-stroke" data-item-order="1000000000" transform="translate(248, 2)"></g><g id="g-root-ic_2_1uux73f5vob9l-stroke" data-item-order="1000000000" transform="translate(314, 494)"><g id="ic_2_1uux73f5vob9l-stroke" fill="none" stroke-linecap="round" stroke-linejoin="round" stroke-miterlimit="4" stroke="#ffe711" stroke-width="2"><g><path d="M 14.644 42.428001L 36.5 42.428001C 36.5 42.428001 40.143997 42.428001 40.143997 46.072002L 40.143997 53.356003C 40.143997 53.356003 40.143997 57 36.5 57L 14.644 57C 14.644 57 11 57 11 53.356003L 11 46.072002C 11 46.072002 11 42.428001 14.644 42.428001M 39.968002 44.952L 36.501999 32.498001L 34.313999 32.498001C 33.44651 32.498615 32.678322 33.058399 32.412003 33.884003L 31.482 35.756001C 31.215679 36.5816 30.447493 37.141384 29.58 37.141998L 21.562 37.141998C 20.694508 37.141384 19.926319 36.5816 19.66 35.756001L 18.734001 33.884003C 18.467453 33.057697 17.698229 32.497749 16.83 32.498001L 14.644 32.498001L 11.176 44.952M 18.285999 48.804001L 18.285999 48.804001M 18.285999 48.799999C 17.783421 48.800003 17.376001 49.207424 17.376001 49.710003C 17.376001 50.212582 17.783421 50.620003 18.285999 50.620003C 18.78858 50.620003 19.196001 50.212582 19.196001 49.710003C 19.196001 49.207424 18.78858 48.800003 18.285999 48.800003M 32.858002 48.804001L 32.858002 48.804001M 32.858002 48.799999C 32.355423 48.800003 31.948002 49.207424 31.948002 49.710003C 31.948002 50.212582 32.355423 50.620003 32.858002 50.620003C 33.36058 50.620003 33.768002 50.212582 33.768002 49.710003C 33.768002 49.207424 33.36058 48.800003 32.858002 48.800003M 43 15.35C 43 15.35 44.271999 11.4 55.161999 11C 55.609341 10.957251 56.055214 11.09507 56.400406 11.382793C 56.745602 11.670517 56.961475 12.084274 57 12.532L 57 28.709999C 56.915562 29.602098 56.145081 30.270437 55.25 30.228001C 44.290001 30.615999 43 34.580002 43 34.580002L 43 15.35M 40.98 32.545998C 41.858109 32.984219 42.567856 33.698887 43 34.580002M 43 15.35C 43 15.35 41.728001 11.4 30.837999 11C 30.390657 10.957251 29.944784 11.09507 29.599592 11.382793C 29.254398 11.670517 29.038523 12.084274 29 12.532L 29 28.709999C 29.007687 29.121027 29.195641 29.507904 29.514 29.768"></path></g></g></g><g id="g-root-ic_conv_1430dnv5vpsem-stroke" data-item-order="1000000000" transform="translate(518, 494)"><g id="ic_conv_1430dnv5vpsem-stroke" fill="none" stroke-linecap="round" stroke-linejoin="round" stroke-miterlimit="4" stroke="#a6da37" stroke-width="2"><g><path d="M 15.72798 31.000601L 15.72798 17.958C 15.72798 15.77212 17.5 14.00012 19.685879 14.00012L 32.845802 14.00012L 48.268799 14C 50.454601 14 52.226601 15.771999 52.226601 17.95788L 52.226601 20.413761M 52.226601 29.435419L 52.226601 42.466599C 52.226601 44.652599 50.454601 46.424599 48.268799 46.424599L 29.2852 46.424599L 18.831699 53.645802C 17.51902 54.552601 15.72798 53.612999 15.72798 52.017601L 15.72798 39.418999M 11.679688 28.01368L 15.81226 32.146202L 19.944839 28.01368M 10 10M 56.321999 32.146L 52.1894 28.01342L 48.056801 32.146"></path></g></g></g><g id="g-root-tx_readfrom_zs6o8b5vskxz-stroke" data-item-order="1000000000" transform="translate(182, 566)"></g><g id="g-root-tx_sendtora_dju7fv5vsl59-stroke" data-item-order="1000000000" transform="translate(578, 566)"></g><g id="g-root-tx_theproce_9065n5vsjke-stroke" data-item-order="1000000000" transform="translate(578, 602)"></g><g id="g-root-tx_anotherb_v301t75vtx4w-stroke" data-item-order="1000000000" transform="translate(158, 626)"></g></g></g><path id="w1qd83e36q5czy" d="M65.283 12.757a.35.35 0 0 0 .584.157l5.203-5.141-6.183 3.523.396 1.461zm-2.216-11.7a.35.35 0 0 0-.522.305v3.111l3.276-1.868-2.754-1.548zm3.728 2.105l-4.25 2.421v2.445l6.391-3.644-2.141-1.222zm4.708 3.303a.35.35 0 0 0 0-.609l-1.592-.9-7.365 4.199v1.782a.35.35 0 0 0 .523.305l8.435-4.777z M44.542 2.513c0-.433.355-.783.792-.783s.792.35.792.783-.355.783-.792.783-.792-.35-.792-.783zm59.171 0c0-.433.355-.783.792-.783s.792.35.792.783-.355.783-.792.783-.792-.35-.792-.783zm-85.951 7.636h-1.27v-.487c-.276.201-.864.609-1.881.609-1.202 0-2.274-.794-2.137-2.078.118-1.106 1.153-1.584 1.848-1.727l2.17-.345c0-.539-.29-.956-1.064-1.006s-1.21.305-1.571 1.017l-1.124-.605c1.218-2.631 5.029-1.764 5.029.414v4.207zm-1.27-2.86c.006.396-.062 1.112-.819 1.59-.587.37-1.841.299-1.903-.395-.049-.555.461-.791.906-.898l1.816-.297zm72.662 2.86h-1.27v-.487c-.276.201-.864.609-1.881.609-1.202 0-2.274-.794-2.137-2.078.118-1.106 1.153-1.584 1.848-1.727l2.17-.345c0-.539-.29-.956-1.064-1.006s-1.21.305-1.571 1.017l-1.124-.605c1.218-2.631 5.029-1.764 5.029.414v4.207zm-1.27-2.86c.006.396-.062 1.112-.82 1.59-.587.37-1.841.299-1.903-.395-.049-.555.461-.791.906-.898l1.816-.297zM99.096 10.149H97.85v-8.45h1.246v4.895l2.68-2.559h1.738l-2.633 2.535 2.715 3.578h-1.556l-2.077-2.707-.867.844v1.863zm6.053-6.114h-1.255v6.113h1.255V4.035zm-59.2 0h-1.255v6.113h1.255V4.035zm5.584 6.113V1.697h1.255v2.695c.361-.346 1-.485 1.47-.485 1.452 0 2.477 1.082 2.457 2.448v3.792h-1.27v-3.68c0-.408-.214-1.339-1.315-1.339-.968 0-1.342.756-1.342 1.339v3.681h-1.255zm-4.76-4.894V4.039h.621a.45.45 0 0 0 .45-.45v-.855h1.251v1.305h1.309v1.215h-1.309v3.109c0 .293.105.664.648.664.365 0 .531-.035.736-.07v1.137s-.361.113-.857.113c-1.398 0-1.777-1.051-1.777-1.788V5.254h-1.071zM36.528 4.039h-1.394l2.191 6.106h1.125l1.234-3.918 1.238 3.918h1.129l2.188-6.106h-1.383l-1.359 3.93-1.256-3.93h-1.124l-1.242 3.957-1.348-3.957zM26.212 7.141c-.02 1.566 1.187 3.129 3.223 3.129 1.566 0 2.383-.918 2.734-1.719L31.172 8c-.315.399-.801 1.094-1.738 1.094-1.145 0-1.825-.781-1.891-1.52h4.625c.074-.284.148-.995-.03-1.559-.336-1.064-1.221-2.102-2.839-2.102s-3.088 1.152-3.088 3.227zm1.363-.75h3.348c-.055-.43-.566-1.301-1.623-1.301a1.79 1.79 0 0 0-1.725 1.301zm-8.758.75c.038 1.758 1.277 3.133 3.145 3.133 1.074 0 1.723-.477 1.961-.672v.547h1.242V1.703h-1.258v2.888c-.414-.36-1.062-.68-1.93-.68-1.91 0-3.198 1.473-3.16 3.23zm1.309-.08c0 1.119.723 1.978 1.836 1.978a1.88 1.88 0 0 0 1.94-1.904c0-1.371-1.011-1.99-1.972-1.99s-1.805.798-1.805 1.916zm76.683-.028C96.771 5.275 95.532 3.9 93.664 3.9c-1.074 0-1.723.477-1.961.672v-.547h-1.242v8.22h1.258V9.583c.414.36 1.063.68 1.93.68 1.91 0 3.198-1.473 3.16-3.23zm-1.309.08c0-1.119-.723-1.978-1.836-1.978a1.88 1.88 0 0 0-1.94 1.904c0 1.371 1.011 1.99 1.972 1.99S95.5 8.231 95.5 7.113zM106.441 10.173V4.036h1.254v.382c.361-.346 1-.485 1.47-.485 1.452 0 2.477 1.082 2.457 2.448v3.792h-1.27V6.492c0-.408-.214-1.339-1.315-1.339-.969 0-1.342.756-1.342 1.339v3.681h-1.254zm-30.383-.021V1.824h1.084l4.215 5.777V1.824h1.32v8.328h-1.094l-4.207-5.796v5.796h-1.319zM5.24 10.149H4V2.377h1.014l2.664 3.597 2.654-3.592h1.03v7.766h-1.256V4.762L7.678 8.068 5.24 4.742v5.407z" transform="translate(773, 683)" fill="#ababab88" stroke="none"></path></svg>